<?xml version="1.0" encoding="UTF-8"?>
<svg version="1.1" xmlns="http://www.w3.org/2000/svg" width="1254" height="1254">
<path d="M0 0 C413.82 0 827.64 0 1254 0 C1254 413.82 1254 827.64 1254 1254 C840.18 1254 426.36 1254 0 1254 C0 840.18 0 426.36 0 0 Z " fill="#FDFDFD" transform="translate(0,0)"/>
<path d="M0 0 C10.003125 -0.061875 20.00625 -0.12375 30.3125 -0.1875 C33.44919189 -0.21481201 36.58588379 -0.24212402 39.81762695 -0.27026367 C42.33284115 -0.27903409 44.84805963 -0.28667671 47.36328125 -0.29296875 C48.64569702 -0.30831665 49.92811279 -0.32366455 51.24938965 -0.33947754 C64.3510454 -0.34325505 74.15918973 2.02067481 84 11 C90.14367957 18.60797626 90.70521886 27.63381202 90 37 C88.66470526 44.5318969 86.01836532 51.01613503 79.76953125 55.65625 C74.44635448 59.0234688 69.06352707 61.33033313 63 63 C63.49628906 63.3403125 63.99257813 63.680625 64.50390625 64.03125 C65.18324219 64.5159375 65.86257813 65.000625 66.5625 65.5 C67.22378906 65.9640625 67.88507813 66.428125 68.56640625 66.90625 C75.47814486 72.85278595 80.28707832 80.18567207 85.0625 87.875 C85.64837891 88.80441406 86.23425781 89.73382812 86.83789062 90.69140625 C98 108.45662805 98 108.45662805 98 110 C74.84650495 111.78854245 74.84650495 111.78854245 68.7734375 107.97265625 C66.75332484 105.0754988 65.38285675 102.24653437 64 99 C62.74626274 97.03774316 61.45326348 95.10009644 60.125 93.1875 C59.46886719 92.19878906 58.81273437 91.21007812 58.13671875 90.19140625 C49.36546849 75.50335735 49.36546849 75.50335735 36 66 C31.71 65.67 27.42 65.34 23 65 C23 79.85 23 94.7 23 110 C15.41 110 7.82 110 0 110 C0 73.7 0 37.4 0 0 Z " fill="#050505" transform="translate(789,542)"/>
<path d="M0 0 C9.054375 -0.04125 18.10875 -0.0825 27.4375 -0.125 C30.27915771 -0.14320801 33.12081543 -0.16141602 36.04858398 -0.18017578 C38.32275199 -0.18602177 40.5969221 -0.19111708 42.87109375 -0.1953125 C44.03419067 -0.20554443 45.1972876 -0.21577637 46.39562988 -0.22631836 C57.45764195 -0.22867223 66.59946395 1.01745814 74.9140625 8.7890625 C82.18513849 16.55519047 84.5628674 23.53233949 84.32788086 34.1237793 C83.87510842 45.0896441 81.51780175 51.67482869 74 60 C65.7312354 66.86492583 56.01194182 68.14112839 45.53515625 68.09765625 C44.29386963 68.09515869 43.05258301 68.09266113 41.77368164 68.09008789 C40.2189917 68.08098389 38.66430176 68.07187988 37.0625 68.0625 C29.6065625 68.0315625 29.6065625 68.0315625 22 68 C22 81.53 22 95.06 22 109 C14.74 109 7.48 109 0 109 C0 73.03 0 37.06 0 0 Z " fill="#020202" transform="translate(204,543)"/>
<path d="M0 0 C1.00023193 0.00523682 2.00046387 0.01047363 3.03100586 0.01586914 C4.1105957 0.0190918 5.19018555 0.02231445 6.30249023 0.02563477 C8.00695312 0.03820312 8.00695312 0.03820312 9.74584961 0.05102539 C11.45611328 0.05779297 11.45611328 0.05779297 13.20092773 0.06469727 C16.02845312 0.07652792 18.85587601 0.09301129 21.68334961 0.11352539 C22.93491773 3.07119764 24.1843018 6.02978802 25.43334961 8.98852539 C25.78139648 9.81094727 26.12944336 10.63336914 26.48803711 11.48071289 C28.25806482 15.67633413 29.99733309 19.88027026 31.67553711 24.11352539 C33.69924611 29.20162283 35.87318011 34.21817061 38.05834961 39.23852539 C41.14724052 46.3797213 44.05199639 53.55206025 46.72583008 60.8581543 C48.20070912 64.87707032 49.82864791 68.76580928 51.62475586 72.64868164 C53.38747848 76.75302842 54.86034154 80.97020417 56.39331055 85.16455078 C58.13420051 89.85050142 60.12755517 94.25717983 62.60522461 98.60961914 C64.17507613 102.25554241 64.82223705 106.23851888 65.68334961 110.11352539 C57.43334961 110.11352539 49.18334961 110.11352539 40.68334961 110.11352539 C40.10584961 108.33977539 39.52834961 106.56602539 38.93334961 104.73852539 C37.2925629 99.78686551 35.46549736 94.968633 33.41772461 90.17211914 C32.68334961 88.11352539 32.68334961 88.11352539 32.68334961 85.11352539 C17.83334961 85.44352539 2.98334961 85.77352539 -12.31665039 86.11352539 C-15.28665039 94.03352539 -18.25665039 101.95352539 -21.31665039 110.11352539 C-29.23665039 110.11352539 -37.15665039 110.11352539 -45.31665039 110.11352539 C-44.62052866 106.63291676 -44.00464169 104.0199143 -42.72875977 100.82202148 C-42.40269745 99.99863785 -42.07663513 99.17525421 -41.74069214 98.32691956 C-41.38419586 97.43923386 -41.02769958 96.55154816 -40.66040039 95.63696289 C-40.28593781 94.69461288 -39.91147522 93.75226288 -39.52566528 92.78135681 C-38.29318802 89.68219363 -37.05487655 86.58539561 -35.81665039 83.48852539 C-34.95991062 81.33660776 -34.10363331 79.18450595 -33.24780273 77.03222656 C-31.48310213 72.59525269 -29.71648615 68.15904888 -27.94848633 63.72338867 C-24.29365788 54.54969198 -20.66127955 45.36713551 -17.03173828 36.18341064 C-15.96810022 33.49293043 -14.90324483 30.80293487 -13.83813477 28.11303711 C-13.17721885 26.44266993 -12.51640796 24.77226119 -11.85571289 23.10180664 C-11.54575378 22.3185199 -11.23579468 21.53523315 -10.91644287 20.72821045 C-8.63987889 14.96305785 -6.42087718 9.17808843 -4.23999023 3.37597656 C-2.92061443 0.14312211 -2.92061443 0.14312211 0 0 Z " fill="#030303" transform="translate(657.316650390625,541.886474609375)"/>
<path d="M0 0 C28.05 0 56.1 0 85 0 C85 6.27 85 12.54 85 19 C64.54 19 44.08 19 23 19 C23 26.92 23 34.84 23 43 C41.81 43 60.62 43 80 43 C80 49.27 80 55.54 80 62 C61.19 62 42.38 62 23 62 C23 71.57 23 81.14 23 91 C44.12 91 65.24 91 87 91 C87 97.27 87 103.54 87 110 C58.29 110 29.58 110 0 110 C0 73.7 0 37.4 0 0 Z " fill="#060606" transform="translate(954,542)"/>
<path d="M0 0 C2.79853873 2.33600896 3.89750524 3.25501572 5.0625 6.75 C4.30066406 7.40355469 4.30066406 7.40355469 3.5234375 8.0703125 C0.12219821 11.01295773 -3.14881235 13.93081811 -6.1875 17.25 C-7.095 18.075 -8.0025 18.9 -8.9375 19.75 C-13.16645156 19.3932366 -16.18524983 16.62308449 -19.5234375 14.22265625 C-27.10124883 9.5999461 -36.19701996 9.54869168 -44.71875 11.33203125 C-53.15793139 14.25636784 -60.33082449 20.53180518 -65.0625 28.0625 C-68.81921214 36.65311773 -68.7200734 48.52264649 -65.72265625 57.3125 C-64.28763391 59.99997186 -62.80496419 62.34713896 -60.9375 64.75 C-60.34066406 65.59046875 -59.74382812 66.4309375 -59.12890625 67.296875 C-54.05073565 72.98152943 -46.53105752 76.16755795 -39.10546875 77.37109375 C-28.15061596 77.7434008 -19.30278495 74.81670281 -10.9375 67.75 C-7.06428907 69.32630677 -4.69014837 71.82747669 -1.8125 74.8125 C1.30355765 78.21453483 1.30355765 78.21453483 5.0625 80.75 C4.73913516 83.71307779 4.15051675 84.66965077 1.91015625 86.71484375 C-13.04911613 97.31012082 -26.57740641 101.67931216 -44.9375 99.75 C-58.02746959 97.34348749 -70.67039156 90.24416623 -78.9375 79.75 C-86.63378582 67.99718808 -90.51857971 58.1797128 -90.4375 44 C-90.43177979 42.84564453 -90.42605957 41.69128906 -90.42016602 40.50195312 C-90.24047405 31.93966099 -89.36296453 25.23407673 -84.9375 17.75 C-84.41800781 16.86828125 -83.89851563 15.9865625 -83.36328125 15.078125 C-75.66228385 3.2304367 -64.91244403 -6.85991759 -50.9375 -10.25 C-32.07906652 -14.20372889 -15.34938901 -11.67418319 0 0 Z " fill="#040404" transform="translate(540.9375,553.25)"/>
<path d="M0 0 C7.59 0 15.18 0 23 0 C23 36.3 23 72.6 23 110 C15.41 110 7.82 110 0 110 C0 73.7 0 37.4 0 0 Z " fill="#060606" transform="translate(358,542)"/>
<path d="M0 0 C5.01226665 3.09303976 8.90433467 6.90550455 10.59375 12.640625 C12.23714579 22.18496211 11.49528104 29.9080477 6 38 C2.3215421 42.5273328 0.85180545 43.04939818 -5 45 C-12.26 45 -19.52 45 -27 45 C-27 29.82 -27 14.64 -27 -1 C-19.15718068 -3.61427311 -7.75236605 -3.02301969 0 0 Z " fill="#F8F8F8" transform="translate(235,690)"/>
<path d="M0 0 C7.06485165 3.95631692 10.31156423 8.17094854 13.125 15.75 C14.48942498 21.55699272 12.52305563 26.23147422 9.75390625 31.34375 C6.90763543 35.54831313 3.13608566 39.69643173 -1.76171875 41.41015625 C-8.10210947 42.42977546 -14.62907234 43.00257986 -20.3125 39.625 C-26.02899232 35.41785181 -30.13602405 30.37570521 -31.28125 23.20703125 C-31.54946692 15.64107883 -29.70303289 10.60056388 -24.875 4.75 C-18.05512199 -1.5087488 -8.7615802 -3.5509488 0 0 Z " fill="#EDEDED" transform="translate(1072.875,500.25)"/>
<path d="M0 0 C2.7807707 1.74439491 4.98695442 3.63539192 7.3046875 5.953125 C7.73402275 11.19101502 7.85513976 14.76866341 4.3046875 18.953125 C2.1171875 19.765625 2.1171875 19.765625 0.3046875 19.953125 C0.3046875 20.613125 0.3046875 21.273125 0.3046875 21.953125 C0.8615625 22.015 1.4184375 22.076875 1.9921875 22.140625 C5.56504958 23.39595492 7.05735226 24.89425203 9.3046875 27.953125 C10.16817373 32.06496417 10.2658445 35.9982294 8.3828125 39.828125 C5.46666051 43.61533538 2.7202516 44.74534295 -1.6953125 46.953125 C-7.9653125 46.953125 -14.2353125 46.953125 -20.6953125 46.953125 C-20.6953125 31.443125 -20.6953125 15.933125 -20.6953125 -0.046875 C-14.54727678 -2.09622024 -6.1059208 -2.37157504 0 0 Z " fill="#202020" transform="translate(721.6953125,689.046875)"/>
<path d="M0 0 C4.57211069 -0.06915798 9.14238114 -0.12880076 13.71459961 -0.16479492 C15.2673968 -0.17981105 16.82015209 -0.20023028 18.37280273 -0.22631836 C20.61452624 -0.26302073 22.85568539 -0.27979787 25.09765625 -0.29296875 C25.78336197 -0.30845261 26.46906769 -0.32393646 27.17555237 -0.33988953 C33.25710706 -0.34197697 37.81544692 1.09551782 42.4375 5.125 C44.92932634 9.70996047 44.74382509 14.02469965 43.4921875 19.03125 C42.43870079 21.88898406 41.28687047 23.7698805 38.90942383 25.67700195 C35.12079662 27.39979887 31.71327693 27.3758426 27.63671875 27.29296875 C26.84473587 27.28872391 26.05275299 27.28447906 25.23677063 27.28010559 C22.71999373 27.26338163 20.20403276 27.22574225 17.6875 27.1875 C15.97592307 27.17244499 14.26433351 27.15875801 12.55273438 27.14648438 C8.36792628 27.11605678 4.18487085 27.057327 0 27 C0 18.09 0 9.18 0 0 Z " fill="#FAFAFA" transform="translate(812,561)"/>
<path d="M0 0 C4.125 -0.0825 8.25 -0.165 12.5 -0.25 C13.78455078 -0.28641602 15.06910156 -0.32283203 16.39257812 -0.36035156 C24.76164665 -0.44107375 29.8642089 0.69136712 36.5 6 C38.88388259 10.76776518 38.77115838 15.77557563 38 21 C35.80157226 25.48658723 33.31168105 27.48485272 29 30 C25.76248322 31.07917226 23.42248229 31.11425601 20.01953125 31.09765625 C18.97128174 31.09515869 17.92303223 31.09266113 16.84301758 31.09008789 C15.51294678 31.08098389 14.18287598 31.07187988 12.8125 31.0625 C8.584375 31.041875 4.35625 31.02125 0 31 C0 20.77 0 10.54 0 0 Z " fill="#F9F9F9" transform="translate(226,561)"/>
<path d="M0 0 C2.97 0 5.94 0 9 0 C14.09197297 11.38349726 17.97888305 23.20792091 22 35 C22.24907104 34.19949219 22.24907104 34.19949219 22.50317383 33.3828125 C23.27058593 30.92113123 24.0415224 28.46056681 24.8125 26 C25.07353516 25.16082031 25.33457031 24.32164062 25.60351562 23.45703125 C27.2435577 18.23319352 29.03448696 13.11033391 31 8 C31.31324219 7.1646875 31.62648438 6.329375 31.94921875 5.46875 C32.6328125 3.64583333 33.31640625 1.82291667 34 0 C36.97 0 39.94 0 43 0 C44.92061313 15.30896488 45.57468488 30.58319143 46 46 C43.69 46 41.38 46 39 46 C38.97494385 45.19892822 38.9498877 44.39785645 38.92407227 43.57250977 C38.80720265 39.90237974 38.68489255 36.23244983 38.5625 32.5625 C38.52318359 31.30244141 38.48386719 30.04238281 38.44335938 28.74414062 C38.21821306 22.11098393 37.85241566 15.5829411 37 9 C36.75092896 9.80050781 36.75092896 9.80050781 36.49682617 10.6171875 C35.72941407 13.07886877 34.9584776 15.53943319 34.1875 18 C33.92646484 18.83917969 33.66542969 19.67835938 33.39648438 20.54296875 C31.16380215 27.6544751 28.59776222 34.58486621 25.8125 41.5 C25.46832031 42.3559375 25.12414062 43.211875 24.76953125 44.09375 C24.51558594 44.7228125 24.26164062 45.351875 24 46 C22.02 46 20.04 46 18 46 C16.45023589 41.08917785 14.90201879 36.17787169 13.35522461 31.26611328 C12.82895573 29.59573229 12.30226657 27.92548366 11.77514648 26.25537109 C11.01695632 23.85288728 10.26028566 21.44992942 9.50390625 19.046875 C9.26845596 18.30193787 9.03300568 17.55700073 8.79042053 16.78948975 C7.77004771 13.54313536 6.80255079 10.30662207 6 7 C5.97494385 7.79059814 5.9498877 8.58119629 5.92407227 9.39575195 C5.80685565 13.03478302 5.68470755 16.67363325 5.5625 20.3125 C5.50352539 22.17745117 5.50352539 22.17745117 5.44335938 24.08007812 C5.19298646 31.41793056 4.76882404 38.6975866 4 46 C2.02 46 0.04 46 -2 46 C-2.11050431 36.63169006 -2.00092076 27.29740884 -1.5625 17.9375 C-1.52326416 17.07036377 -1.48402832 16.20322754 -1.44360352 15.30981445 C-1.18508623 10.16278985 -0.70239318 5.10563112 0 0 Z " fill="#161616" transform="translate(323,689)"/>
<path d="M0 0 C3.51497272 0.63908595 5.49926476 1.6661765 8.4375 3.625 C11.44201938 3.95039569 11.44201938 3.95039569 13.1875 2.125 C16.44444795 -0.04629863 18.59375131 0.1610993 22.4375 0.625 C27.97596154 3.70192308 27.97596154 3.70192308 29.4375 6.625 C30.22802595 13.33317739 29.89104153 18.45037914 25.84765625 23.98046875 C21.7754006 28.7295536 16.44331549 31.87375148 10.4375 33.625 C4.68948212 32.95271721 -0.6613154 28.71551418 -4.4453125 24.5546875 C-8.09543075 19.77603027 -10.06108972 15.99855622 -9.96875 9.765625 C-8.92611425 4.27173662 -5.35774518 0.9399553 0 0 Z " fill="#ED799E" transform="translate(497.5625,581.375)"/>
<path d="M0 0 C4.41039827 2.04367181 7.16729875 4.85503578 10 8.75 C11.84395394 14.7428503 11.98568296 20.5022035 9.4375 26.3125 C7.03860982 30.3906133 4.48671641 33.29706951 0 35 C-5.26198988 35.86925684 -10.48204619 36.31610695 -15.32421875 33.78515625 C-19.56758011 30.28905349 -21.77109459 27.11315835 -22.37109375 21.57421875 C-22.57250301 9.78585345 -22.57250301 9.78585345 -19.8125 5.75 C-13.72207522 -0.20508201 -8.35135619 -1.33059172 0 0 Z " fill="#171717" transform="translate(567,701)"/>
<path d="M0 0 C5.0614574 2.45653796 8.60145462 5.8985621 11 11 C11.29296875 14.55078125 11.29296875 14.55078125 11.1875 18.3125 C11.14689453 20.19388672 11.14689453 20.19388672 11.10546875 22.11328125 C11.07066406 23.06589844 11.03585937 24.01851562 11 25 C10.34 25 9.68 25 9 25 C8.731875 25.763125 8.46375 26.52625 8.1875 27.3125 C6.35339758 31.46336338 4.1160078 33.22752097 0 35 C-5.49724897 35.6909666 -10.87354472 35.11089335 -16 33 C-18.3125 30.5625 -18.3125 30.5625 -20 28 C-20.66 27.01 -21.32 26.02 -22 25 C-22.65475423 18.87119587 -22.93856061 13.01616724 -20.3125 7.375 C-13.90441323 0.79372169 -9.18770479 -1.31252926 0 0 Z " fill="#0C0C0C" transform="translate(278,701)"/>
<path d="M0 0 C4.72123521 2.09500136 7.354325 4.93060077 10 9.3125 C11.62461266 15.3032592 11.96025672 20.44379415 9.5 26.25 C6.96606698 30.64918927 3.82070733 33.35447009 -1 35 C-5.04021808 35.38124607 -8.95695549 35.30322834 -13 35 C-13 34.34 -13 33.68 -13 33 C-13.60328125 32.88914062 -14.2065625 32.77828125 -14.828125 32.6640625 C-17.80706586 31.75323526 -19.30755908 30.04628967 -20.99609375 27.484375 C-23.28066666 21.83072375 -23.12119049 15.91287049 -22 10 C-16.56391187 0.77214837 -10.34555095 -1.34660488 0 0 Z " fill="#0F0F0F" transform="translate(402,701)"/>
<path d="M0 0 C2.97 0 5.94 0 9 0 C9.36738281 1.13695312 9.36738281 1.13695312 9.7421875 2.296875 C11.921997 8.94153567 14.18504542 15.54650977 16.55859375 22.125 C16.89621735 23.06149384 16.89621735 23.06149384 17.24066162 24.01690674 C18.38641081 27.19296621 19.53782755 30.36682002 20.69677734 33.53808594 C21.12297363 34.71661133 21.54916992 35.89513672 21.98828125 37.109375 C22.56896362 38.70217285 22.56896362 38.70217285 23.16137695 40.32714844 C24 43 24 43 24 46 C21.69 46 19.38 46 17 46 C16.32968281 44.0429132 15.66385317 42.08428887 15 40.125 C14.62875 39.03445313 14.2575 37.94390625 13.875 36.8203125 C13 34 13 34 13 32 C7.06 32 1.12 32 -5 32 C-5.33 34.31 -5.66 36.62 -6 39 C-6.57367927 41.37427844 -7.28429309 43.66202408 -8 46 C-10.31 46 -12.62 46 -15 46 C-13.76357069 39.8177964 -12.09104744 33.95726265 -9.9609375 28.02734375 C-9.67521881 27.21882462 -9.38950012 26.41030548 -9.09512329 25.57728577 C-8.19331568 23.02892104 -7.28429921 20.48319993 -6.375 17.9375 C-5.75733121 16.19613418 -5.14013932 14.45459913 -4.5234375 12.71289062 C-3.02112481 8.47328623 -1.51234734 4.23603467 0 0 Z " fill="#111112" transform="translate(648,689)"/>
<path d="M0 0 C5.01226665 3.09303976 8.90433467 6.90550455 10.59375 12.640625 C12.23714579 22.18496211 11.49528104 29.9080477 6 38 C2.3215421 42.5273328 0.85180545 43.04939818 -5 45 C-12.26 45 -19.52 45 -27 45 C-27 29.82 -27 14.64 -27 -1 C-19.15718068 -3.61427311 -7.75236605 -3.02301969 0 0 Z M-21 3 C-21 15.54 -21 28.08 -21 41 C-9.94258773 41.43880551 -9.94258773 41.43880551 -1 37 C3.46280437 32.53719563 5.06650454 27.84975471 5.3125 21.625 C5.15184656 15.67078175 3.88666711 10.83829103 -0.4375 6.625 C-8.2891704 1.64589194 -9.33699693 3 -21 3 Z " fill="#0C0C0C" transform="translate(235,690)"/>
<path d="M0 0 C4.83763525 2.32923179 7.63619663 5.18147775 10 10 C10 12.97 10 15.94 10 19 C2.08 19 -5.84 19 -14 19 C-12.7284644 25.59529756 -12.7284644 25.59529756 -10 28 C-6.21124838 29.0550114 -2.60340427 29.10553192 1.3125 29.0625 C2.38113281 29.05347656 3.44976562 29.04445313 4.55078125 29.03515625 C5.76314453 29.01775391 5.76314453 29.01775391 7 29 C7 30.65 7 32.3 7 34 C0.45846769 36.18051077 -7.71933849 35.76349107 -14 33 C-17.49969624 29.73726236 -19.86550593 26.58895133 -20.2734375 21.76953125 C-20.58145017 9.76888379 -20.58145017 9.76888379 -17.8125 5.75 C-12.16358779 0.22661917 -7.85063208 -1.12151887 0 0 Z " fill="#212121" transform="translate(470,701)"/>
<path d="M0 0 C3.63607969 1.31010964 6.29965255 3.20627289 8.875 6.125 C10 9 10 9 11 19 C3.08 19 -4.84 19 -13 19 C-11.8107692 25.22755319 -11.8107692 25.22755319 -8 29 C-5.18872957 29.21714241 -2.6116655 29.28284276 0.1875 29.1875 C0.93708984 29.17396484 1.68667969 29.16042969 2.45898438 29.14648438 C4.30629767 29.11118539 6.15324066 29.05737917 8 29 C8 30.65 8 32.3 8 34 C2.0035089 35.99883037 -6.65174569 36.62387689 -12.47265625 33.80078125 C-16.5113932 30.39658047 -18.77824116 27.11702337 -19.3359375 21.79296875 C-19.47008499 9.41115551 -19.47008499 9.41115551 -15 4 C-10.32289919 -0.24202167 -6.07839022 -1.04654023 0 0 Z " fill="#0C0C0C" transform="translate(854,701)"/>
<path d="M0 0 C4.83763525 2.32923179 7.63619663 5.18147775 10 10 C10 12.97 10 15.94 10 19 C2.08 19 -5.84 19 -14 19 C-12.21979146 25.11658282 -12.21979146 25.11658282 -8 29 C-5.26317029 29.2911521 -2.96059961 29.38322418 -0.25 29.25 C0.44738281 29.23195313 1.14476562 29.21390625 1.86328125 29.1953125 C3.57611539 29.14838554 5.28823824 29.07664605 7 29 C7.33 30.32 7.66 31.64 8 33 C2.61243375 36.35047652 -3.90703099 35.55970297 -10 35 C-14.54197556 33.04225191 -17.0356306 30.42427034 -19.3125 25.984375 C-20.59113204 22.29377798 -20.41115246 18.83963349 -20 15 C-19.94070313 14.30519531 -19.88140625 13.61039063 -19.8203125 12.89453125 C-18.98677324 7.63916786 -16.47693317 4.57076327 -12.3515625 1.29296875 C-8.24554532 -0.96465864 -4.51959335 -0.94790129 0 0 Z " fill="#202021" transform="translate(761,701)"/>
<path d="M0 0 C4.92149256 2.18733003 6.98331016 5.06872124 9.3359375 9.70703125 C10 12 10 12 10 19 C2.08 19 -5.84 19 -14 19 C-12.04527239 26.70032383 -12.04527239 26.70032383 -8.5625 28.5 C-3.36760387 29.22910823 1.76428598 29.15249652 7 29 C7 30.32 7 31.64 7 33 C0.68144673 35.86791478 -5.76765176 36.01759111 -12.375 33.9375 C-15.93394355 31.31066071 -18.37114732 29.18649796 -20 25 C-20.82694785 18.81586825 -20.98934196 13.16894198 -18.375 7.4375 C-17.59125 6.633125 -16.8075 5.82875 -16 5 C-15.13375 4.05125 -14.2675 3.1025 -13.375 2.125 C-8.80670191 -0.75133584 -5.26272166 -0.89997683 0 0 Z " fill="#0D0D0D" transform="translate(1023,701)"/>
<path d="M0 0 C0.66 0 1.32 0 2 0 C2.43570313 1.1859375 2.87140625 2.371875 3.3203125 3.59375 C3.92183832 5.22918016 4.52340375 6.86459575 5.125 8.5 C5.43904785 9.35480957 5.7530957 10.20961914 6.07666016 11.09033203 C7.62006623 15.28401566 9.17343646 19.4730043 10.765625 23.6484375 C11.03745605 24.36322266 11.30928711 25.07800781 11.58935547 25.81445312 C12.1006936 27.15556371 12.61518056 28.49547934 13.13330078 29.83398438 C14.44050163 33.26777118 15.27155088 36.35775442 16 40 C6.1 40 -3.8 40 -14 40 C-12.20765668 34.02552228 -10.45086978 28.27882411 -8.30078125 22.4609375 C-8.0608696 21.80920563 -7.82095795 21.15747375 -7.57377625 20.48599243 C-6.8228242 18.44794584 -6.06775602 16.41145499 -5.3125 14.375 C-4.79594774 12.97536233 -4.27966971 11.57562342 -3.76367188 10.17578125 C-2.51226966 6.78268275 -1.25717674 3.39096389 0 0 Z " fill="#F0F0F0" transform="translate(666,569)"/>
<path d="M0 0 C4.95 0 9.9 0 15 0 C14.67 0.99 14.34 1.98 14 3 C11.69 3.33 9.38 3.66 7 4 C6.67 9.28 6.34 14.56 6 20 C9.3 20 12.6 20 16 20 C15.67 20.99 15.34 21.98 15 23 C12.03 23 9.06 23 6 23 C6 29.27 6 35.54 6 42 C7.7325 41.87625 9.465 41.7525 11.25 41.625 C12.71179688 41.52058594 12.71179688 41.52058594 14.203125 41.4140625 C16.92639708 41.01089652 18.69123113 40.47210492 21 39 C22.17635297 36.64729407 22.13359359 35.179248 22.125 32.5625 C22.12757813 31.78003906 22.13015625 30.99757813 22.1328125 30.19140625 C22.08382548 27.82104653 22.08382548 27.82104653 21 25 C21.33 24.34 21.66 23.68 22 23 C24.5152204 23.3593172 26.09767638 24.06240435 28.25 25.4375 C30.98534283 29.44282343 30.85283733 33.30568672 30 38 C27.58774249 42.9374292 23.91243851 44.54378075 19 47 C12.73 47 6.46 47 0 47 C0 31.49 0 15.98 0 0 Z " fill="#0E0E0E" transform="translate(701,689)"/>
<path d="M0 0 C8.58 0 17.16 0 26 0 C26 1.98 26 3.96 26 6 C19.73 6 13.46 6 7 6 C7 10.95 7 15.9 7 21 C12.61 21 18.22 21 24 21 C24 22.65 24 24.3 24 26 C18.06 26 12.12 26 6 26 C6 32.93 6 39.86 6 47 C4.02 47 2.04 47 0 47 C0 31.49 0 15.98 0 0 Z " fill="#1E1E1E" transform="translate(510,688)"/>
<path d="M0 0 C7.06485165 3.95631692 10.31156423 8.17094854 13.125 15.75 C14.48942498 21.55699272 12.52305563 26.23147422 9.75390625 31.34375 C6.90763543 35.54831313 3.13608566 39.69643173 -1.76171875 41.41015625 C-8.10210947 42.42977546 -14.62907234 43.00257986 -20.3125 39.625 C-26.02899232 35.41785181 -30.13602405 30.37570521 -31.28125 23.20703125 C-31.54946692 15.64107883 -29.70303289 10.60056388 -24.875 4.75 C-18.05512199 -1.5087488 -8.7615802 -3.5509488 0 0 Z M-24.875 9.8125 C-28.01667084 14.70666749 -27.79309449 20.17479718 -26.875 25.75 C-25.20529449 30.11528941 -22.64873387 32.97626613 -19.375 36.25 C-13.92977761 38.58366674 -8.70589007 38.47886126 -2.875 37.75 C2.03268436 35.47143226 5.02415324 32.09118547 8.125 27.75 C9.04966753 25.3772914 9.04966753 25.3772914 9.125 22.75 C9.310625 20.8628125 9.310625 20.8628125 9.5 18.9375 C9.38637907 13.91924213 7.56707473 10.36148333 4.125 6.75 C-6.35792671 -0.67615563 -16.33940084 0.00257195 -24.875 9.8125 Z " fill="#202020" transform="translate(1072.875,500.25)"/>
<path d="M0 0 C2.31 0 4.62 0 7 0 C7 13.53 7 27.06 7 41 C13.6 41 20.2 41 27 41 C27 42.98 27 44.96 27 47 C18.09 47 9.18 47 0 47 C0 31.49 0 15.98 0 0 Z " fill="#202020" transform="translate(922,689)"/>
<path d="M0 0 C0 1.65 0 3.3 0 5 C-1.11375 5.0825 -2.2275 5.165 -3.375 5.25 C-6.94889897 5.6008997 -6.94889897 5.6008997 -8.375 7.625 C-9.19154295 10.7278632 -9.63251718 13.81514885 -10 17 C-7.36 17 -4.72 17 -2 17 C-2 18.65 -2 20.3 -2 22 C-4.64 22 -7.28 22 -10 22 C-10 31.57 -10 41.14 -10 51 C-12.31 51 -14.62 51 -17 51 C-17 41.43 -17 31.86 -17 22 C-18.32 22 -19.64 22 -21 22 C-21 20.35 -21 18.7 -21 17 C-19.35 17 -17.7 17 -16 17 C-16.0928125 15.205625 -16.0928125 15.205625 -16.1875 13.375 C-16.17278786 9.21882059 -15.36405429 6.50532188 -13 3 C-8.82842929 -0.57563204 -5.24184884 -0.26653469 0 0 Z " fill="#1B1B1B" transform="translate(998,685)"/>
<path d="M0 0 C3.85476085 0.02455262 4.56160177 0.2258514 7.75 2.75 C11.52567772 7.705577 11.40263537 12.2780117 10.75 18.375 C9.55791528 21.18181765 7.91577152 23.20922848 5.75 25.375 C2.36978136 25.80599327 -0.87602552 25.86927652 -4.25 25.375 C-7.20772176 22.6336969 -9.08477652 20.03265195 -9.48828125 15.984375 C-9.65096516 9.71676333 -9.40707516 6.16193503 -5.25 1.375 C-3.69049449 -0.18450551 -2.16122869 0.09303302 0 0 Z " fill="#F5F5F5" transform="translate(395.25,705.625)"/>
<path d="M0 0 C3.44312714 2.1244827 4.71617547 3.14852641 6 7 C6.98243341 17.25918167 6.98243341 17.25918167 4.125 21.625 C1.97121908 24.03216691 1.1174571 24.84899228 -2.0234375 25.2734375 C-4.43574538 25.37762355 -6.61437756 25.39052894 -9 25 C-13.00471114 21.19552442 -14.17242261 18.14666588 -14.3125 12.75 C-14.27788997 7.47543187 -13.50051899 4.91234476 -10 1 C-6.79582279 -0.6020886 -3.47660568 -0.49285215 0 0 Z " fill="#F5F5F5" transform="translate(276,706)"/>
<path d="M0 0 C2.8100346 1.79363911 4.50940468 3.01880935 6 6 C6.53482287 12.29445379 6.61132839 17.58300741 3 23 C0.51923136 25.48076864 -0.44218209 25.35091557 -3.875 25.4375 C-8.60598085 25.35557825 -8.60598085 25.35557825 -11.5625 22.6875 C-14.20305536 17.75080954 -14.53435789 13.49357412 -14 8 C-11.31317651 0.96308133 -7.47473961 -1.22393397 0 0 Z " fill="#F5F5F5" transform="translate(565,706)"/>
<path d="M0 0 C3 1 3 1 6 3 C4.68 3.33 3.36 3.66 2 4 C2 11.59 2 19.18 2 27 C3.32 27 4.64 27 6 27 C6 23.7 6 20.4 6 17 C7.65 17 9.3 17 11 17 C12.87890625 19.15234375 12.87890625 19.15234375 14.5625 21.9375 C16.67555133 25.71171494 16.67555133 25.71171494 20.21484375 27.81640625 C21.09849609 27.90728516 21.09849609 27.90728516 22 28 C21 31 21 31 19.3359375 32.1640625 C13.39114008 34.29146492 6.23544431 33.95804756 0.5 31.5 C-4.58059991 26.41940009 -7.28834312 22.35191274 -7.6875 15 C-7.43186535 8.27680874 -4.60601311 4.60601311 0 0 Z " fill="#F3F3F3" transform="translate(1053,505)"/>
<path d="M0 0 C1.2065625 0.0309375 1.2065625 0.0309375 2.4375 0.0625 C2.4375 3.0325 2.4375 6.0025 2.4375 9.0625 C5.4075 9.0625 8.3775 9.0625 11.4375 9.0625 C11.4375 10.3825 11.4375 11.7025 11.4375 13.0625 C8.4675 13.0625 5.4975 13.0625 2.4375 13.0625 C2.57600705 16.52116792 2.72454727 19.97933275 2.875 23.4375 C2.91431641 24.42234375 2.95363281 25.4071875 2.99414062 26.421875 C3.05698242 27.83339844 3.05698242 27.83339844 3.12109375 29.2734375 C3.15775146 30.14274902 3.19440918 31.01206055 3.23217773 31.90771484 C3.31151544 34.1108262 3.31151544 34.1108262 4.4375 36.0625 C6.75906597 36.46979228 9.0943787 36.80688677 11.4375 37.0625 C11.4375 39.0425 11.4375 41.0225 11.4375 43.0625 C9.69059636 43.22514275 7.93931351 43.34119612 6.1875 43.4375 C4.72570312 43.54191406 4.72570312 43.54191406 3.234375 43.6484375 C0.4375 43.0625 0.4375 43.0625 -1.90625 40.8125 C-4.72542374 35.91443915 -3.97968165 30.14662397 -3.8125 24.6875 C-3.79445313 23.56988281 -3.77640625 22.45226562 -3.7578125 21.30078125 C-3.71085555 18.5537997 -3.64519468 15.80859953 -3.5625 13.0625 C-5.2125 13.0625 -6.8625 13.0625 -8.5625 13.0625 C-8.5625 11.4125 -8.5625 9.7625 -8.5625 8.0625 C-6.9125 8.0625 -5.2625 8.0625 -3.5625 8.0625 C-3.583125 6.928125 -3.60375 5.79375 -3.625 4.625 C-3.54537671 0.0864726 -3.54537671 0.0864726 0 0 Z " fill="#131313" transform="translate(814.5625,692.9375)"/>
<path d="M0 0 C0 3.3 0 6.6 0 10 C2.64 10 5.28 10 8 10 C8 11.32 8 12.64 8 14 C5.36 14 2.72 14 0 14 C0.13847638 17.62532066 0.28702643 21.25015904 0.4375 24.875 C0.47681641 25.90753906 0.51613281 26.94007813 0.55664062 28.00390625 C0.61948242 29.48310547 0.61948242 29.48310547 0.68359375 30.9921875 C0.72025146 31.90339355 0.75690918 32.81459961 0.79467773 33.75341797 C0.86577065 36.03483481 0.86577065 36.03483481 2 38 C5.02934491 38.65772428 5.02934491 38.65772428 8 39 C8 40.65 8 42.3 8 44 C6.41906283 44.1357675 4.83473048 44.23234745 3.25 44.3125 C2.36828125 44.37050781 1.4865625 44.42851563 0.578125 44.48828125 C-2 44 -2 44 -4.13671875 41.84179688 C-6.29363411 38.55216182 -6.470384 36.93122007 -6.390625 33.04296875 C-6.37773438 31.93115234 -6.36484375 30.81933594 -6.3515625 29.67382812 C-6.31804688 28.52333984 -6.28453125 27.37285156 -6.25 26.1875 C-6.23195313 25.01767578 -6.21390625 23.84785156 -6.1953125 22.64257812 C-6.1482644 19.7608822 -6.08253709 16.88086203 -6 14 C-7.65 14 -9.3 14 -11 14 C-11 12.68 -11 11.36 -11 10 C-9.35 10 -7.7 10 -6 10 C-6 7.36 -6 4.72 -6 2 C-2.25 0 -2.25 0 0 0 Z " fill="#0C0C0C" transform="translate(790,692)"/>
<path d="M0 0 C5.28 0 10.56 0 16 0 C15.67 0.99 15.34 1.98 15 3 C10.545 3.495 10.545 3.495 6 4 C6 16.54 6 29.08 6 42 C8.97 42.33 11.94 42.66 15 43 C14.67 43.99 14.34 44.98 14 46 C9.38 46 4.76 46 0 46 C0 30.82 0 15.64 0 0 Z " fill="#070707" transform="translate(208,689)"/>
<path d="M0 0 C6.61423598 -0.53993763 10.60560277 0.00814605 16 4 C20.16700802 8.72260909 19.30315823 12.03158232 20 19 C12.08 19 4.16 19 -4 19 C-4.33 19.66 -4.66 20.32 -5 21 C-5 20.01 -5 19.02 -5 18 C3.415 17.505 3.415 17.505 12 17 C12.33 16.34 12.66 15.68 13 15 C7.39 15 1.78 15 -4 15 C-2.875 7.125 -2.875 7.125 2 3 C1.34 2.01 0.68 1.02 0 0 Z " fill="#29292A" transform="translate(845,701)"/>
<path d="M0 0 C4.89665366 -0.34837852 8.82972293 -0.52012314 13.375 1.5 C16.62745164 4.59757299 18.74503241 7.66667072 20 12 C20 14.31 20 16.62 20 19 C12.08 19 4.16 19 -4 19 C-4 18.67 -4 18.34 -4 18 C-2.85660156 17.95101562 -1.71320312 17.90203125 -0.53515625 17.8515625 C0.95575473 17.77654811 2.44663892 17.70099972 3.9375 17.625 C4.69224609 17.5940625 5.44699219 17.563125 6.22460938 17.53125 C8.15507395 17.4273685 10.07942081 17.22104386 12 17 C12.33 16.34 12.66 15.68 13 15 C7.39 15 1.78 15 -4 15 C-2.90492756 8.42956537 -2.19231575 7.51480158 2 3 C1.34 2.01 0.68 1.02 0 0 Z " fill="#2B2B2B" transform="translate(1013,701)"/>
<path d="M0 0 C3.6196875 -0.0928125 3.6196875 -0.0928125 7.3125 -0.1875 C8.44619019 -0.22846802 8.44619019 -0.22846802 9.6027832 -0.27026367 C12.51346882 -0.30651568 14.52420317 -0.31657348 16.984375 1.3203125 C18 3 18 3 17.9375 6.0625 C17 9 17 9 14.9375 10.375 C14.298125 10.58125 13.65875 10.7875 13 11 C13.3609375 11.48210938 13.721875 11.96421875 14.09375 12.4609375 C14.5578125 13.09257813 15.021875 13.72421875 15.5 14.375 C15.9640625 15.00148438 16.428125 15.62796875 16.90625 16.2734375 C18 18 18 18 18 20 C18.66 20 19.32 20 20 20 C20 20.66 20 21.32 20 22 C17.6875 22.27734375 17.6875 22.27734375 15 22 C13.375 20.06640625 13.375 20.06640625 12 17.5625 C10.03460019 13.84032238 10.03460019 13.84032238 6.3125 12.21484375 C5.549375 12.14394531 4.78625 12.07304688 4 12 C4 15.3 4 18.6 4 22 C2.68 22 1.36 22 0 22 C0 14.74 0 7.48 0 0 Z " fill="#1C1C1D" transform="translate(1055,510)"/>
<path d="M0 0 C9.77662582 -0.47690858 9.77662582 -0.47690858 14.6875 1.4375 C17.19269028 4.21352166 17.43059301 4.92408963 17.625 8.5 C17.41013721 11.76591444 17.14247367 12.8100351 15.125 15.5 C10.25335186 18.93881045 5.87386565 18.06830076 0 18 C0 12.06 0 6.12 0 0 Z " fill="#F2F3F3" transform="translate(707,713)"/>
<path d="M0 0 C0 1.98 0 3.96 0 6 C-1.093125 6.226875 -2.18625 6.45375 -3.3125 6.6875 C-6.96734016 7.6538249 -6.96734016 7.6538249 -8.6875 9.90625 C-10.62672987 14.47729184 -10.57186239 18.89294582 -10.6875 23.8125 C-10.72166016 24.79154297 -10.75582031 25.77058594 -10.79101562 26.77929688 C-10.87319858 29.18608345 -10.94244433 31.59251945 -11 34 C-12.98 34 -14.96 34 -17 34 C-17 23.11 -17 12.22 -17 1 C-15.02 1 -13.04 1 -11 1 C-10.67 1.99 -10.34 2.98 -10 4 C-9.278125 3.34 -8.55625 2.68 -7.8125 2 C-4.78402067 -0.1535853 -3.60296594 -0.41176754 0 0 Z " fill="#0B0C0B" transform="translate(893,701)"/>
<path d="M0 0 C0.94875 0.04125 1.8975 0.0825 2.875 0.125 C2.875 2.105 2.875 4.085 2.875 6.125 C1.76125 6.41375 0.6475 6.7025 -0.5 7 C-4.12791092 7.81741329 -4.12791092 7.81741329 -6.125 10.125 C-7.08897996 13.03521621 -7.3045156 15.83991916 -7.44140625 18.890625 C-7.48330078 19.78007813 -7.52519531 20.66953125 -7.56835938 21.5859375 C-7.60767578 22.50632812 -7.64699219 23.42671875 -7.6875 24.375 C-7.75227539 25.77878906 -7.75227539 25.77878906 -7.81835938 27.2109375 C-7.9241805 29.51548641 -8.02626557 31.82013839 -8.125 34.125 C-10.105 34.125 -12.085 34.125 -14.125 34.125 C-14.125 23.235 -14.125 12.345 -14.125 1.125 C-12.475 1.125 -10.825 1.125 -9.125 1.125 C-9.125 2.775 -9.125 4.425 -9.125 6.125 C-8.465 6.125 -7.805 6.125 -7.125 6.125 C-6.83625 5.50625 -6.5475 4.8875 -6.25 4.25 C-4.49257947 0.93042788 -3.84628281 0.15385131 0 0 Z " fill="#0A0A0A" transform="translate(604.125,700.875)"/>
<path d="M0 0 C0 1.98 0 3.96 0 6 C-1.093125 6.226875 -2.18625 6.45375 -3.3125 6.6875 C-6.96734016 7.6538249 -6.96734016 7.6538249 -8.6875 9.90625 C-10.62672987 14.47729184 -10.57186239 18.89294582 -10.6875 23.8125 C-10.72166016 24.79154297 -10.75582031 25.77058594 -10.79101562 26.77929688 C-10.87319858 29.18608345 -10.94244433 31.59251945 -11 34 C-12.98 34 -14.96 34 -17 34 C-17 23.11 -17 12.22 -17 1 C-15.35 1 -13.7 1 -12 1 C-11.67 2.65 -11.34 4.3 -11 6 C-10.38125 5.195625 -9.7625 4.39125 -9.125 3.5625 C-6.10542067 -0.07875743 -4.56535327 -0.12014088 0 0 Z " fill="#060606" transform="translate(442,701)"/>
<path d="M0 0 C5.85582794 -0.58127704 10.58792112 -0.89575157 15.5 2.6875 C18.44192547 5.09962957 20.37699521 7.54805024 22 11 C22.29296875 14.55078125 22.29296875 14.55078125 22.1875 18.3125 C22.16042969 19.56675781 22.13335937 20.82101562 22.10546875 22.11328125 C22.07066406 23.06589844 22.03585937 24.01851562 22 25 C21.34 25 20.68 25 20 25 C19.731875 25.763125 19.46375 26.52625 19.1875 27.3125 C17.36077673 31.4466632 15.12058161 33.26231701 11 35 C8.640625 35.1953125 8.640625 35.1953125 6.25 35.125 C5.05117188 35.09792969 5.05117188 35.09792969 3.828125 35.0703125 C3.22484375 35.04710937 2.6215625 35.02390625 2 35 C2 34.67 2 34.34 2 34 C3.98 34 5.96 34 8 34 C8 33.01 8 32.02 8 31 C6.02 31 4.04 31 2 31 C2 30.67 2 30.34 2 30 C2.61488281 29.91363281 3.22976563 29.82726562 3.86328125 29.73828125 C8.92571472 28.89265051 8.92571472 28.89265051 13.0625 26.0625 C14.80583895 20.36759275 15.08617978 14.41921859 12.625 8.9375 C10.99508466 6.93682883 10.99508466 6.93682883 9 5 C9 3.68 9 2.36 9 1 C6.03 1 3.06 1 0 1 C0 0.67 0 0.34 0 0 Z " fill="#1B1B1B" transform="translate(267,701)"/>
<path d="M0 0 C11.46213101 -1.03159179 11.46213101 -1.03159179 16.5625 2.5625 C20.58868606 6.14505225 22.53989181 9.77341853 23.30859375 15.1640625 C23.63127971 20.85506943 22.48668638 25.44353485 19 30 C14.61657232 34.34127934 10.59441894 35.29093956 4.5 35.3125 C2.66543011 35.23303224 0.83114735 35.13733605 -1 35 C-1 34.67 -1 34.34 -1 34 C2.63 34 6.26 34 10 34 C10.268125 33.113125 10.53625 32.22625 10.8125 31.3125 C12 28 12 28 13.625 25.8125 C16.20938798 20.52625187 15.75931972 14.48044442 14.0625 8.9375 C10.88832129 5.95569576 7.21993111 5.59273666 3 5 C3 4.01 3 3.02 3 2 C2.01 1.34 1.02 0.68 0 0 Z " fill="#181818" transform="translate(390,701)"/>
<path d="M0 0 C4.26672384 0.47408043 6.2455048 2.88307122 9 6 C11.71593792 10.51713286 11.61652757 14.86740798 11 20 C9.69651563 24.34001047 7.71427916 27.26740599 4.5625 30.5 C-0.86970636 32.78724478 -6.18672761 32.3105012 -12 32 C-9.78878389 29.45019143 -8.30949811 28.62035101 -5 28.0625 C-2.12567113 27.42962025 -1.20272864 27.20272864 0.9375 25.0625 C3.5855804 19.92210864 3.64878424 14.66438547 3 9 C1.07606449 6.1125127 1.07606449 6.1125127 -1 4 C-0.75 1.6875 -0.75 1.6875 0 0 Z " fill="#121212" transform="translate(567,703)"/>
<path d="M0 0 C10.04995766 -0.48433531 10.04995766 -0.48433531 14.1875 1.625 C16 4 16 4 16.5625 7 C15.88355363 10.62104732 14.88564803 11.77392866 12 14 C9.11788698 14.96070434 7.30149956 15.10581883 4.3125 15.0625 C2.889375 15.041875 1.46625 15.02125 0 15 C0 10.05 0 5.1 0 0 Z " fill="#F2F2F2" transform="translate(707,693)"/>
<path d="M0 0 C1.98 0 3.96 0 6 0 C6 11.22 6 22.44 6 34 C4.02 34 2.04 34 0 34 C0 22.78 0 11.56 0 0 Z " fill="#0F0F0F" transform="translate(960,701)"/>
<path d="M0 0 C2.5152204 0.3593172 4.09767638 1.06240435 6.25 2.4375 C8.98582995 6.44353672 8.85159715 10.30510788 8 15 C6.14687988 18.86395258 3.6539129 20.72856446 -0.3125 22.375 C-1.199375 22.58125 -2.08625 22.7875 -3 23 C-3 22.01 -3 21.02 -3 20 C-3.56203125 20.32742188 -4.1240625 20.65484375 -4.703125 20.9921875 C-7.26859964 22.11785494 -8.96842277 22.2068111 -11.75 22.125 C-12.54921875 22.10695313 -13.3484375 22.08890625 -14.171875 22.0703125 C-14.77515625 22.04710937 -15.3784375 22.02390625 -16 22 C-15.505 20.515 -15.505 20.515 -15 19 C-14.32453125 18.95101562 -13.6490625 18.90203125 -12.953125 18.8515625 C-12.06109375 18.77679687 -11.1690625 18.70203125 -10.25 18.625 C-9.36828125 18.55539062 -8.4865625 18.48578125 -7.578125 18.4140625 C-4.97613712 17.99616748 -3.22566767 17.39354867 -1 16 C0.17635297 13.64729407 0.13359359 12.179248 0.125 9.5625 C0.12757813 8.78003906 0.13015625 7.99757813 0.1328125 7.19140625 C0.08382548 4.82104653 0.08382548 4.82104653 -1 2 C-0.67 1.34 -0.34 0.68 0 0 Z " fill="#171717" transform="translate(723,712)"/>
<path d="M0 0 C8.96297185 -0.62653784 8.96297185 -0.62653784 13 1.8125 C18.11087894 7.40252384 17 7.81912791 17 17 C9.74 17 2.48 17 -5 17 C-5.33 16.01 -5.66 15.02 -6 14 C-0.39 14 5.22 14 11 14 C9.99779798 6.17937941 9.99779798 6.17937941 6 4 C4.01200182 3.29835358 2.01301483 2.62627128 0 2 C0 1.34 0 0.68 0 0 Z " fill="#0F0F10" transform="translate(462,702)"/>
<path d="M0 0 C1.70621231 3.19819169 2.9129666 6.43951236 4.0625 9.875 C4.40410156 10.88304687 4.74570312 11.89109375 5.09765625 12.9296875 C6 16 6 16 7 22 C2.38 22 -2.24 22 -7 22 C-6.566875 20.576875 -6.13375 19.15375 -5.6875 17.6875 C-4.23498723 12.86873724 -2.9187865 8.02201491 -1.6484375 3.15234375 C-1 1 -1 1 0 0 Z " fill="#ECECEC" transform="translate(652,694)"/>
<path d="M0 0 C2.5625 1.6875 2.5625 1.6875 4 4 C4 5.65 4 7.3 4 9 C-1.61 9 -7.22 9 -13 9 C-12 3 -12 3 -10.71484375 1.15234375 C-7.44583676 -1.04436937 -3.7646963 -0.61159326 0 0 Z " fill="#F4F4F4" transform="translate(854,706)"/>
<path d="M0 0 C1.90625 0.38671875 1.90625 0.38671875 4.40625 2.07421875 C5.90625 4.38671875 5.90625 4.38671875 5.90625 9.38671875 C0.29625 9.38671875 -5.31375 9.38671875 -11.09375 9.38671875 C-9.65688409 2.2023892 -7.28677498 -0.39424715 0 0 Z " fill="#F4F4F4" transform="translate(467.09375,705.61328125)"/>
<path d="M0 0 C1.90625 0.38671875 1.90625 0.38671875 4.40625 2.07421875 C5.90625 4.38671875 5.90625 4.38671875 5.90625 9.38671875 C0.29625 9.38671875 -5.31375 9.38671875 -11.09375 9.38671875 C-9.65688409 2.2023892 -7.28677498 -0.39424715 0 0 Z " fill="#F4F4F4" transform="translate(1020.09375,705.61328125)"/>
<path d="M0 0 C2.5 1.125 2.5 1.125 4 3 C4 4.98 4 6.96 4 9 C-1.61 9 -7.22 9 -13 9 C-10.30861629 0.92584886 -8.72209408 -1.26356292 0 0 Z " fill="#F4F4F5" transform="translate(760,706)"/>
<path d="M0 0 C1.8125 0.25 1.8125 0.25 4 1 C7 5 7 5 7 15 C0.07 15 -6.86 15 -14 15 C-14.33 14.01 -14.66 13.02 -15 12 C-9.39 12 -3.78 12 2 12 C0.57222367 6.97765661 0.57222367 6.97765661 -1 2 C-0.67 1.34 -0.34 0.68 0 0 Z " fill="#0A0A0A" transform="translate(763,704)"/>
<path d="M0 0 C6.2102796 2.12923872 9.6797145 4.99626437 12.8125 10.75 C15.04118009 15.49470573 15.63790309 18.80564626 15 24 C14.34 24.99 13.68 25.98 13 27 C12.01 27 11.02 27 10 27 C10.05800781 26.2265625 10.11601563 25.453125 10.17578125 24.65625 C10.45001565 18.32535296 10.29899397 13.77830544 6.51171875 8.55859375 C4.30922233 6.28780286 1.93977245 5.09386882 -1 4 C-0.34 3.67 0.32 3.34 1 3 C0.67 2.01 0.34 1.02 0 0 Z " fill="#232223" transform="translate(1071,500)"/>
<path d="M0 0 C8.27015524 -0.2144997 15.96235969 -0.07422976 24 2 C23.01 3.65 22.02 5.3 21 7 C13.575 6.01 13.575 6.01 6 5 C6.33 4.01 6.66 3.02 7 2 C4.69 1.67 2.38 1.34 0 1 C0 0.67 0 0.34 0 0 Z " fill="#2D2E2D" transform="translate(211,688)"/>
<path d="M0 0 C1.30514155 2.61028309 0.95798659 4.40670021 0.8125 7.3125 C0.75481561 11.31894295 0.7518689 12.62004926 3 16.0625 C3.66 16.701875 4.32 17.34125 5 18 C5 18.66 5 19.32 5 20 C5.70125 20.2475 6.4025 20.495 7.125 20.75 C10.37002459 22.16088026 13.10316737 23.97895398 16 26 C13 27 13 27 10.94921875 26.06640625 C5.61089488 22.51674357 0.81812882 18.9041406 -2 13 C-2.89991006 8.07887023 -2.44006733 4.36850764 0 0 Z " fill="#E07197" transform="translate(491,587)"/>
<path d="M0 0 C2.27113803 0.14100857 4.54190725 0.28796755 6.8125 0.4375 C8.07707031 0.51871094 9.34164063 0.59992187 10.64453125 0.68359375 C14 1 14 1 17 2 C17 2.66 17 3.32 17 4 C13.93042902 5.02319033 11.77559677 5.13371939 8.5625 5.125 C7.14130859 5.12886719 7.14130859 5.12886719 5.69140625 5.1328125 C3.29859541 5.01473475 1.28663847 4.68112635 -1 4 C-0.67 2.68 -0.34 1.36 0 0 Z " fill="#131313" transform="translate(460,731)"/>
<path d="M0 0 C2.97 0 5.94 0 9 0 C9.33 1.32 9.66 2.64 10 4 C8 6 8 6 6.0546875 6.1953125 C4.03645833 6.13020833 2.01822917 6.06510417 0 6 C0 4.02 0 2.04 0 0 Z " fill="#F2F2F2" transform="translate(1059,513)"/>
<path d="M0 0 C0.33 0 0.66 0 1 0 C1.94242818 9.03721311 2.11157151 17.92551747 2 27 C1.67 27 1.34 27 1 27 C0.67 22.38 0.34 17.76 0 13 C-0.99 13 -1.98 13 -3 13 C-2.68991116 11.39536551 -2.37683713 9.79130769 -2.0625 8.1875 C-1.88847656 7.29417969 -1.71445312 6.40085937 -1.53515625 5.48046875 C-1 3 -1 3 0 0 Z " fill="#BCBCBC" transform="translate(360,695)"/>
<path d="M0 0 C0 1.65 0 3.3 0 5 C-3.61867559 6.2062252 -6.92506251 6.10816918 -10.6875 6.0625 C-11.38939453 6.05798828 -12.09128906 6.05347656 -12.81445312 6.04882812 C-14.54300538 6.03706927 -16.27151365 6.01913454 -18 6 C-18 5.67 -18 5.34 -18 5 C-17.14535156 4.95101562 -16.29070313 4.90203125 -15.41015625 4.8515625 C-14.30542969 4.77679687 -13.20070313 4.70203125 -12.0625 4.625 C-10.40927734 4.52058594 -10.40927734 4.52058594 -8.72265625 4.4140625 C-7.37494141 4.20910156 -7.37494141 4.20910156 -6 4 C-5.67 3.34 -5.34 2.68 -5 2 C-7.97 2 -10.94 2 -14 2 C-14 1.67 -14 1.34 -14 1 C-4.58997722 -0.14806378 -4.58997722 -0.14806378 0 0 Z " fill="#3D3D3D" transform="translate(862,730)"/>
<path d="M0 0 C0.60546875 1.8125 0.60546875 1.8125 1 4 C-1.1666971 7.85190595 -3.65628216 11.10211121 -7 14 C-7.66 14 -8.32 14 -9 14 C-8.50128936 9.54326841 -6.97995638 7.42312822 -3.9375 4.1875 C-3.20402344 3.39730469 -2.47054688 2.60710938 -1.71484375 1.79296875 C-1.14894531 1.20128906 -0.58304688 0.60960937 0 0 Z " fill="#151515" transform="translate(1083,525)"/>
<path d="M0 0 C-0.3125 1.9375 -0.3125 1.9375 -1 4 C-4.56045177 5.18681726 -7.43808337 5.09689832 -11.1875 5.0625 C-12.45980469 5.05347656 -13.73210938 5.04445313 -15.04296875 5.03515625 C-16.50669922 5.01775391 -16.50669922 5.01775391 -18 5 C-18 4.67 -18 4.34 -18 4 C-17.21753906 3.95101562 -16.43507813 3.90203125 -15.62890625 3.8515625 C-14.61699219 3.77679687 -13.60507812 3.70203125 -12.5625 3.625 C-11.55316406 3.55539062 -10.54382813 3.48578125 -9.50390625 3.4140625 C-8.26447266 3.20910156 -8.26447266 3.20910156 -7 3 C-6.67 2.34 -6.34 1.68 -6 1 C-8.64 1 -11.28 1 -14 1 C-14 0.67 -14 0.34 -14 0 C-12.41773035 -0.19627391 -10.83410729 -0.38165538 -9.25 -0.5625 C-7.92742188 -0.71912109 -7.92742188 -0.71912109 -6.578125 -0.87890625 C-4.11567549 -0.99456676 -2.33461936 -0.73638695 0 0 Z " fill="#373737" transform="translate(769,731)"/>
<path d="M0 0 C5.61 0 11.22 0 17 0 C16.67 0.99 16.34 1.98 16 3 C11.05 3 6.1 3 1 3 C0.67 2.01 0.34 1.02 0 0 Z " fill="#030303" transform="translate(1009,716)"/>
<path d="M0 0 C5.28 0 10.56 0 16 0 C16 0.99 16 1.98 16 3 C11.05 3 6.1 3 1 3 C0.67 2.01 0.34 1.02 0 0 Z " fill="#030303" transform="translate(748,716)"/>
<path d="M0 0 C5.61 0 11.22 0 17 0 C16.67 0.99 16.34 1.98 16 3 C11.05 3 6.1 3 1 3 C0.67 2.01 0.34 1.02 0 0 Z " fill="#030303" transform="translate(456,716)"/>
<path d="M0 0 C0.99 0.495 0.99 0.495 2 1 C2.80045663 3.69058598 3.4954659 6.33218727 4.125 9.0625 C4.30675781 9.82111328 4.48851562 10.57972656 4.67578125 11.36132812 C5.12456584 13.23913735 5.56323336 15.11935915 6 17 C4.68 16.01 3.36 15.02 2 14 C1.34 14.66 0.68 15.32 0 16 C0 10.72 0 5.44 0 0 Z " fill="#BDBDBE" transform="translate(328,695)"/>
<path d="M0 0 C1.66611905 -0.042721 3.33382885 -0.04063832 5 0 C6 1 6 1 6.0625 3.5625 C6.041875 4.366875 6.02125 5.17125 6 6 C3.625 6.625 3.625 6.625 1 7 C0.34 6.34 -0.32 5.68 -1 5 C-0.625 2.375 -0.625 2.375 0 0 Z " fill="#1D1D1E" transform="translate(960,689)"/>
<path d="M0 0 C4.29 0 8.58 0 13 0 C13 0.99 13 1.98 13 3 C8.71 3 4.42 3 0 3 C0 2.01 0 1.02 0 0 Z " fill="#030303" transform="translate(646,717)"/>
<path d="M0 0 C0 1.65 0 3.3 0 5 C-3.3125 5.25 -3.3125 5.25 -7 5 C-8.9375 3 -8.9375 3 -10 1 C-6.78548731 -0.60725635 -3.56387464 -0.05748185 0 0 Z " fill="#1E1E1E" transform="translate(998,685)"/>
<path d="M0 0 C3.96 0.33 7.92 0.66 12 1 C11.67 1.99 11.34 2.98 11 4 C7.37 4 3.74 4 0 4 C0 2.68 0 1.36 0 0 Z " fill="#030303" transform="translate(845,731)"/>
<path d="M0 0 C1.07894531 0.03480469 2.15789062 0.06960938 3.26953125 0.10546875 C4.35621094 0.13253906 5.44289063 0.15960938 6.5625 0.1875 C7.80966797 0.23970703 7.80966797 0.23970703 9.08203125 0.29296875 C9.41203125 1.28296875 9.74203125 2.27296875 10.08203125 3.29296875 C4.80203125 3.29296875 -0.47796875 3.29296875 -5.91796875 3.29296875 C-2.91796875 0.29296875 -2.91796875 0.29296875 0 0 Z " fill="#050606" transform="translate(1061.91796875,499.70703125)"/>
<path d="M0 0 C3.3 0.33 6.6 0.66 10 1 C9.67 1.99 9.34 2.98 9 4 C5.7 4 2.4 4 -1 4 C-0.67 2.68 -0.34 1.36 0 0 Z " fill="#040404" transform="translate(753,731)"/>
<path d="M0 0 C1.58246707 -0.08153933 3.16616273 -0.13943557 4.75 -0.1875 C6.07257812 -0.23970703 6.07257812 -0.23970703 7.421875 -0.29296875 C10.44671583 0.05076316 11.75583602 1.00227459 14 3 C13.34 3 12.68 3 12 3 C11.67 3.99 11.34 4.98 11 6 C8.03 5.67 5.06 5.34 2 5 C2 4.67 2 4.34 2 4 C3.4540625 3.814375 3.4540625 3.814375 4.9375 3.625 C6.4534375 3.315625 6.4534375 3.315625 8 3 C8.33 2.34 8.66 1.68 9 1 C6.03 1 3.06 1 0 1 C0 0.67 0 0.34 0 0 Z " fill="#373838" transform="translate(751,701)"/>
<path d="M0 0 C3.96 0 7.92 0 12 0 C12 3 12 3 10 6 C7.69 5.67 5.38 5.34 3 5 C3 4.67 3 4.34 3 4 C4.65 4 6.3 4 8 4 C8 3.34 8 2.68 8 2 C5.36 1.67 2.72 1.34 0 1 C0 0.67 0 0.34 0 0 Z " fill="#373838" transform="translate(555,701)"/>
<path d="M0 0 C7.59 0 15.18 0 23 0 C23 0.33 23 0.66 23 1 C16.4 1 9.8 1 3 1 C3 1.66 3 2.32 3 3 C2.34 3 1.68 3 1 3 C0.67 3.66 0.34 4.32 0 5 C0 3.35 0 1.7 0 0 Z " fill="#E8E9E9" transform="translate(747,720)"/>
<path d="M0 0 C1.93816735 0.1141866 3.87555099 0.24173423 5.8125 0.375 C6.89144531 0.44460938 7.97039063 0.51421875 9.08203125 0.5859375 C12 1 12 1 15 3 C10.20699867 4.39151652 5.84864218 3.68662689 1 3 C0.67 2.01 0.34 1.02 0 0 Z " fill="#070707" transform="translate(1015,731)"/>
<path d="M0 0 C2.97 0 5.94 0 9 0 C8.67 0.99 8.34 1.98 8 3 C6.15234375 3.73046875 6.15234375 3.73046875 3.9375 4.1875 C3.20402344 4.34605469 2.47054687 4.50460937 1.71484375 4.66796875 C0.86599609 4.83232422 0.86599609 4.83232422 0 5 C0 3.35 0 1.7 0 0 Z " fill="#060606" transform="translate(751,702)"/>
<path d="M0 0 C-0.33 1.32 -0.66 2.64 -1 4 C-4.3 4 -7.6 4 -11 4 C-7.42606429 0.42606429 -4.94783376 0 0 0 Z " fill="#030303" transform="translate(566,731)"/>
<path d="M0 0 C5.28 0 10.56 0 16 0 C16 0.99 16 1.98 16 3 C13.89521396 2.88590318 11.79115423 2.75834639 9.6875 2.625 C8.51574219 2.55539062 7.34398437 2.48578125 6.13671875 2.4140625 C3 2 3 2 0 0 Z " fill="#464646" transform="translate(461,730)"/>
<path d="M0 0 C0.99 0.495 0.99 0.495 2 1 C3.53668865 1.22467831 5.07968054 1.40796805 6.625 1.5625 C7.44226563 1.64628906 8.25953125 1.73007812 9.1015625 1.81640625 C9.72804688 1.87699219 10.35453125 1.93757812 11 2 C11 2.66 11 3.32 11 4 C7.37 4 3.74 4 0 4 C0 2.68 0 1.36 0 0 Z " fill="#1D1D1D" transform="translate(1014,732)"/>
<path d="M0 0 C5.28 0 10.56 0 16 0 C16 0.99 16 1.98 16 3 C13.89521396 2.88590318 11.79115423 2.75834639 9.6875 2.625 C8.51574219 2.55539062 7.34398437 2.48578125 6.13671875 2.4140625 C3 2 3 2 0 0 Z " fill="#414142" transform="translate(1014,730)"/>
<path d="M0 0 C3.3 0 6.6 0 10 0 C10 0.33 10 0.66 10 1 C7.36 1 4.72 1 2 1 C2.33 1.66 2.66 2.32 3 3 C5.52733235 3.65555119 5.52733235 3.65555119 8 4 C8 4.33 8 4.66 8 5 C5.36 5 2.72 5 0 5 C0 3.35 0 1.7 0 0 Z " fill="#3B3B3B" transform="translate(460,701)"/>
<path d="M0 0 C2.31 0 4.62 0 7 0 C6.67 0.99 6.34 1.98 6 3 C2.4375 4.1875 2.4375 4.1875 -1 5 C-0.67 3.35 -0.34 1.7 0 0 Z " fill="#060606" transform="translate(557,702)"/>
<path d="M0 0 C3.3 0 6.6 0 10 0 C10 0.99 10 1.98 10 3 C5.545 3.495 5.545 3.495 1 4 C0.67 2.68 0.34 1.36 0 0 Z " fill="#030303" transform="translate(390,702)"/>
<path d="M0 0 C-0.33 1.32 -0.66 2.64 -1 4 C-3.64 4 -6.28 4 -9 4 C-8.67 3.01 -8.34 2.02 -8 1 C-2.25 0 -2.25 0 0 0 Z " fill="#030303" transform="translate(401,731)"/>
<path d="M0 0 C2.31 1.98 4.62 3.96 7 6 C6.67 6.99 6.34 7.98 6 9 C3.35247996 6.42215154 1.05567935 4.08351902 -1 1 C-0.67 0.67 -0.34 0.34 0 0 Z " fill="#141314" transform="translate(276,550)"/>
<path d="M0 0 C2.31 0 4.62 0 7 0 C7.33 1.32 7.66 2.64 8 4 C5.69 3.67 3.38 3.34 1 3 C0.67 2.01 0.34 1.02 0 0 Z " fill="#040404" transform="translate(462,702)"/>
<path d="M0 0 C1.65 0 3.3 0 5 0 C5 1.98 5 3.96 5 6 C3.0625 5.625 3.0625 5.625 1 5 C0.67 4.34 0.34 3.68 0 3 C0.66 2.67 1.32 2.34 2 2 C1.34 1.34 0.68 0.68 0 0 Z " fill="#2A292A" transform="translate(888,701)"/>
<path d="M0 0 C0.66 0 1.32 0 2 0 C2.1875 2.875 2.1875 2.875 2 6 C1.01 6.66 0.02 7.32 -1 8 C-1 5 -1 5 0 3 C-0.66 2.67 -1.32 2.34 -2 2 C-1.34 1.34 -0.68 0.68 0 0 Z " fill="#1F1F20" transform="translate(749,702)"/>
<path d="M0 0 C2.31 0.33 4.62 0.66 7 1 C5.515 3.475 5.515 3.475 4 6 C2.68 5.34 1.36 4.68 0 4 C0 2.66666667 0 1.33333333 0 0 Z " fill="#232323" transform="translate(228,689)"/>
<path d="M0 0 C1.65 0 3.3 0 5 0 C5 1.32 5 2.64 5 4 C3.35 4 1.7 4 0 4 C0 2.68 0 1.36 0 0 Z " fill="#191919" transform="translate(437,701)"/>
<path d="M0 0 C2 3.75 2 3.75 2 6 C0 7.625 0 7.625 -2 9 C-1.125 1.125 -1.125 1.125 0 0 Z " fill="#C2C3C4" transform="translate(652,694)"/>
</svg>
